<svg width="26" height="34" viewBox="0 0 26 34" fill="none" xmlns="http://www.w3.org/2000/svg">
<path d="M4.53115 5.38929L15.3248 0.352624C15.9026 0.0829571 16.5088 -0.0315125 17.1093 0.00740039C17.7107 0.0460863 18.2983 0.238268 18.8387 0.58111C19.2965 0.871425 19.6714 1.23888 19.9535 1.66579C19.8426 1.70936 19.7328 1.75655 19.6244 1.80715L17.999 2.56555C17.9183 2.48807 17.8274 2.41705 17.7269 2.3534C17.4869 2.20104 17.2324 2.11596 16.9784 2.09973C16.7235 2.08328 16.4589 2.13513 16.1996 2.25618L5.40599 7.29284C4.36557 7.77829 3.53516 8.50867 2.96821 9.40094C2.40228 10.2915 2.09293 11.3566 2.09293 12.5126V20.1788L2.08886 20.1911C2.08411 20.5013 2.09236 20.8186 2.11271 21.1413C2.21025 22.6757 2.60946 23.9741 3.2102 25.0393V25.2381H3.30051C3.45683 26.6651 3.82021 28.0401 4.40456 29.3105C3.98467 29.0344 3.58218 28.7208 3.20263 28.3694C1.47614 26.7708 0.227185 24.4038 0.0280308 21.2727C0.00666862 20.9331 -0.00180844 20.5687 0.00395596 20.1788H0V12.5126C0 10.9586 0.427809 9.50838 1.21052 8.27678C1.99211 7.04688 3.12351 6.04593 4.53115 5.38917V5.38929ZM20.5899 7.83807C20.6074 10.2413 20.6064 12.5124 20.5344 15.0731C20.3383 22.0413 15.7404 26.1192 11.9957 29.3409C11.6332 29.1363 11.2936 28.8895 10.9875 28.6061C10.769 28.4038 10.5719 28.1873 10.3947 27.9586L10.4289 27.9292C13.8993 24.9457 18.2763 21.1828 18.4498 15.0156C18.5116 12.8184 18.5209 10.8397 18.5111 8.80806L20.5899 7.83807Z" fill="#131480"/>
<path d="M9.62284 8.55801L20.4165 3.52146C20.9944 3.25179 21.6005 3.13733 22.201 3.17612C22.8024 3.21492 23.3901 3.40711 23.9304 3.74995C24.4714 4.0929 24.8966 4.54375 25.1899 5.0731C25.4825 5.60086 25.6394 6.20089 25.6447 6.84346L25.6621 8.76312C25.6931 12.0539 25.7201 14.9017 25.6262 18.2421C25.4264 25.3409 20.6583 29.44 16.8777 32.6902C16.4326 33.0728 16.0018 33.4432 15.6871 33.7217L15.4163 33.9615L15.0617 33.9843C14.8523 33.9977 14.6246 34.0025 14.3803 33.9986C12.2519 33.9653 10.0306 33.1462 8.29443 31.5385C6.56793 29.9398 5.31898 27.5728 5.11983 24.4417C5.09847 24.102 5.08999 23.7378 5.09575 23.3478H5.0918V15.6816C5.0918 14.1277 5.51961 12.6774 6.30232 11.4457C7.0839 10.2159 8.21531 9.21499 9.62295 8.55812L9.62284 8.55801ZM21.2912 5.42502L10.4976 10.4616C9.45714 10.9471 8.62673 11.6775 8.05978 12.5698C7.49385 13.4603 7.1845 14.5254 7.1845 15.6813V23.3476L7.18043 23.36C7.17568 23.6702 7.18393 23.9875 7.20428 24.3101C7.36568 26.8458 8.35004 28.738 9.7084 29.9957C11.057 31.2443 12.7734 31.8803 14.4127 31.9061L14.5872 31.9059C14.9193 31.6148 15.217 31.359 15.5205 31.0981C18.9909 28.1146 23.3679 24.3517 23.5414 18.1846C23.6348 14.8627 23.6082 12.0407 23.5773 8.77946L23.5599 6.85969C23.5578 6.57538 23.4908 6.31468 23.3666 6.09073C23.2433 5.86781 23.0581 5.67403 22.8184 5.52213C22.5785 5.36988 22.3239 5.28468 22.0701 5.26846C21.8151 5.25212 21.5505 5.30397 21.2912 5.42502Z" fill="#131480"/>
</svg>
