<svg width="140" height="35" viewBox="0 0 140 35" fill="none" xmlns="http://www.w3.org/2000/svg">
<path d="M36.3992 23.5798V5.41193H42.538C43.9633 5.41193 45.1283 5.66919 46.0332 6.18371C46.944 6.69232 47.6182 7.38131 48.0558 8.25067C48.4934 9.12003 48.7122 10.0899 48.7122 11.1604C48.7122 12.2308 48.4934 13.2037 48.0558 14.0789C47.6241 14.9542 46.9558 15.6521 46.0509 16.1725C45.1461 16.687 43.9869 16.9443 42.5735 16.9443H38.1734V14.9927H42.5025C43.4783 14.9927 44.2619 14.8241 44.8533 14.487C45.4447 14.1499 45.8735 13.6945 46.1396 13.1209C46.4117 12.5413 46.5477 11.8878 46.5477 11.1604C46.5477 10.4329 46.4117 9.7824 46.1396 9.20874C45.8735 8.63508 45.4418 8.18561 44.8445 7.86034C44.2472 7.52916 43.4547 7.36356 42.467 7.36356H38.5993V23.5798H36.3992ZM51.9724 23.5798V9.95391H53.995V12.012H54.1369C54.3853 11.3378 54.8347 10.7907 55.4853 10.3708C56.1358 9.95095 56.8692 9.741 57.6853 9.741C57.8391 9.741 58.0313 9.74396 58.2619 9.74987C58.4926 9.75579 58.667 9.76466 58.7853 9.77649V11.9055C58.7144 11.8878 58.5517 11.8612 58.2974 11.8257C58.049 11.7843 57.7858 11.7636 57.5079 11.7636C56.8455 11.7636 56.2541 11.9026 55.7337 12.1805C55.2192 12.4526 54.8111 12.8311 54.5095 13.316C54.2138 13.7951 54.0659 14.3421 54.0659 14.9572V23.5798H51.9724ZM66.3878 23.8637C65.1577 23.8637 64.0784 23.571 63.1499 22.9855C62.2273 22.4 61.5058 21.5809 60.9853 20.5282C60.4708 19.4755 60.2136 18.2454 60.2136 16.8378C60.2136 15.4185 60.4708 14.1795 60.9853 13.1209C61.5058 12.0623 62.2273 11.2402 63.1499 10.6547C64.0784 10.0692 65.1577 9.77649 66.3878 9.77649C67.6179 9.77649 68.6943 10.0692 69.6169 10.6547C70.5454 11.2402 71.2669 12.0623 71.7814 13.1209C72.3018 14.1795 72.5621 15.4185 72.5621 16.8378C72.5621 18.2454 72.3018 19.4755 71.7814 20.5282C71.2669 21.5809 70.5454 22.4 69.6169 22.9855C68.6943 23.571 67.6179 23.8637 66.3878 23.8637ZM66.3878 21.983C67.3222 21.983 68.091 21.7435 68.6943 21.2645C69.2975 20.7855 69.744 20.1556 70.0338 19.375C70.3236 18.5943 70.4685 17.7486 70.4685 16.8378C70.4685 15.9271 70.3236 15.0784 70.0338 14.2918C69.744 13.5053 69.2975 12.8695 68.6943 12.3846C68.091 11.8996 67.3222 11.6571 66.3878 11.6571C65.4534 11.6571 64.6846 11.8996 64.0813 12.3846C63.4781 12.8695 63.0316 13.5053 62.7418 14.2918C62.452 15.0784 62.3071 15.9271 62.3071 16.8378C62.3071 17.7486 62.452 18.5943 62.7418 19.375C63.0316 20.1556 63.4781 20.7855 64.0813 21.2645C64.6846 21.7435 65.4534 21.983 66.3878 21.983ZM81.2934 23.8637C80.0159 23.8637 78.9159 23.5621 77.9933 22.9589C77.0708 22.3556 76.3611 21.5247 75.8643 20.4661C75.3675 19.4075 75.1191 18.1981 75.1191 16.8378C75.1191 15.454 75.3734 14.2327 75.882 13.1741C76.3966 12.1096 77.1122 11.2787 78.0288 10.6813C78.9514 10.0781 80.0278 9.77649 81.2579 9.77649C82.216 9.77649 83.0794 9.95391 83.8482 10.3088C84.6171 10.6636 85.2469 11.1604 85.7378 11.7991C86.2286 12.4378 86.5332 13.183 86.6515 14.0346H84.5579C84.3982 13.4136 84.0434 12.8636 83.4934 12.3846C82.9493 11.8996 82.216 11.6571 81.2934 11.6571C80.4772 11.6571 79.7616 11.8701 79.1466 12.2959C78.5374 12.7158 78.0614 13.3101 77.7183 14.0789C77.3812 14.8419 77.2127 15.7378 77.2127 16.7669C77.2127 17.8196 77.3783 18.7362 77.7095 19.5169C78.0466 20.2975 78.5197 20.9037 79.1288 21.3355C79.7439 21.7672 80.4654 21.983 81.2934 21.983C81.8375 21.983 82.3313 21.8884 82.7748 21.6992C83.2184 21.5099 83.5939 21.2379 83.9015 20.883C84.209 20.5282 84.4278 20.1024 84.5579 19.6056H86.6515C86.5332 20.4099 86.2405 21.1344 85.7733 21.779C85.312 22.4177 84.6999 22.9263 83.9369 23.3048C83.18 23.6774 82.2988 23.8637 81.2934 23.8637ZM98.2992 18.0088V9.95391H100.393V23.5798H98.2992V21.2734H98.1572C97.8379 21.9653 97.3411 22.5537 96.6669 23.0387C95.9927 23.5177 95.1411 23.7573 94.112 23.7573C93.2604 23.7573 92.5034 23.571 91.841 23.1984C91.1787 22.8199 90.6582 22.2521 90.2797 21.4951C89.9012 20.7322 89.712 19.7712 89.712 18.612V9.95391H91.8056V18.4701C91.8056 19.4637 92.0835 20.2561 92.6394 20.8476C93.2013 21.439 93.9169 21.7347 94.7862 21.7347C95.3067 21.7347 95.836 21.6016 96.3742 21.3355C96.9182 21.0693 97.3736 20.6613 97.7403 20.1113C98.1129 19.5613 98.2992 18.8604 98.2992 18.0088ZM104.227 23.5798V9.95391H106.25V12.012H106.392C106.64 11.3378 107.09 10.7907 107.74 10.3708C108.391 9.95095 109.124 9.741 109.94 9.741C110.094 9.741 110.286 9.74396 110.517 9.74987C110.747 9.75579 110.922 9.76466 111.04 9.77649V11.9055C110.969 11.8878 110.807 11.8612 110.552 11.8257C110.304 11.7843 110.041 11.7636 109.763 11.7636C109.1 11.7636 108.509 11.9026 107.989 12.1805C107.474 12.4526 107.066 12.8311 106.764 13.316C106.469 13.7951 106.321 14.3421 106.321 14.9572V23.5798H104.227ZM113.522 23.5798V9.95391H115.615V23.5798H113.522ZM114.586 7.68292C114.178 7.68292 113.826 7.54394 113.531 7.26598C113.241 6.98802 113.096 6.65388 113.096 6.26356C113.096 5.87323 113.241 5.53909 113.531 5.26113C113.826 4.98317 114.178 4.84419 114.586 4.84419C114.994 4.84419 115.343 4.98317 115.633 5.26113C115.929 5.53909 116.077 5.87323 116.077 6.26356C116.077 6.65388 115.929 6.98802 115.633 7.26598C115.343 7.54394 114.994 7.68292 114.586 7.68292ZM125.518 9.95391V11.7281H118.173V9.95391H125.518ZM120.373 23.5798V8.07325C120.373 7.2926 120.556 6.64205 120.923 6.12162C121.289 5.60118 121.765 5.21086 122.351 4.95064C122.936 4.69042 123.554 4.56031 124.205 4.56031C124.719 4.56031 125.139 4.60171 125.465 4.68451C125.79 4.7673 126.032 4.84419 126.192 4.91516L125.589 6.72485C125.482 6.68936 125.334 6.64501 125.145 6.59178C124.962 6.53856 124.719 6.51194 124.418 6.51194C123.726 6.51194 123.226 6.68641 122.919 7.03534C122.617 7.38426 122.466 7.89583 122.466 8.57003V23.5798H120.373ZM129.8 28.6896C129.445 28.6896 129.129 28.66 128.851 28.6008C128.573 28.5476 128.381 28.4944 128.274 28.4412L128.807 26.596C129.315 26.7261 129.765 26.7734 130.155 26.7379C130.545 26.7024 130.891 26.528 131.193 26.2145C131.501 25.907 131.781 25.4073 132.036 24.7153L132.426 23.6508L127.387 9.95391H129.658L133.42 20.8121H133.562L137.323 9.95391H139.594L133.81 25.5669C133.55 26.2707 133.227 26.8532 132.843 27.3145C132.459 27.7818 132.012 28.1277 131.503 28.3525C131.001 28.5772 130.433 28.6896 129.8 28.6896Z" fill="#131480"/>
<path d="M4.53115 5.88929L15.3248 0.852624C15.9026 0.582957 16.5088 0.468488 17.1093 0.5074C17.7107 0.546086 18.2983 0.738268 18.8387 1.08111C19.2965 1.37142 19.6714 1.73888 19.9535 2.16579C19.8426 2.20936 19.7328 2.25655 19.6244 2.30715L17.999 3.06555C17.9183 2.98807 17.8274 2.91705 17.7269 2.8534C17.4869 2.70104 17.2324 2.61596 16.9784 2.59973C16.7235 2.58328 16.4589 2.63513 16.1996 2.75618L5.40599 7.79284C4.36557 8.27829 3.53516 9.00867 2.96821 9.90094C2.40228 10.7915 2.09293 11.8566 2.09293 13.0126V20.6788L2.08886 20.6911C2.08411 21.0013 2.09236 21.3186 2.11271 21.6413C2.21025 23.1757 2.60946 24.4741 3.2102 25.5393V25.7381H3.30051C3.45683 27.1651 3.82021 28.5401 4.40456 29.8105C3.98467 29.5344 3.58218 29.2208 3.20263 28.8694C1.47614 27.2708 0.227185 24.9038 0.0280308 21.7727C0.00666862 21.4331 -0.00180844 21.0687 0.00395596 20.6788H0V13.0126C0 11.4586 0.427809 10.0084 1.21052 8.77678C1.99211 7.54688 3.12351 6.54593 4.53115 5.88917V5.88929ZM20.5899 8.33807C20.6074 10.7413 20.6064 13.0124 20.5344 15.5731C20.3383 22.5413 15.7404 26.6192 11.9957 29.8409C11.6332 29.6363 11.2936 29.3895 10.9875 29.1061C10.769 28.9038 10.5719 28.6873 10.3947 28.4586L10.4289 28.4292C13.8993 25.4457 18.2763 21.6828 18.4498 15.5156C18.5116 13.3184 18.5209 11.3397 18.5111 9.30806L20.5899 8.33807Z" fill="#131480"/>
<path d="M9.62284 9.05801L20.4165 4.02146C20.9944 3.75179 21.6005 3.63733 22.201 3.67612C22.8024 3.71492 23.3901 3.90711 23.9304 4.24995C24.4714 4.5929 24.8966 5.04375 25.1899 5.5731C25.4825 6.10086 25.6394 6.70089 25.6447 7.34346L25.6621 9.26312C25.6931 12.5539 25.7201 15.4017 25.6262 18.7421C25.4264 25.8409 20.6583 29.94 16.8777 33.1902C16.4326 33.5728 16.0018 33.9432 15.6871 34.2217L15.4163 34.4615L15.0617 34.4843C14.8523 34.4977 14.6246 34.5025 14.3803 34.4986C12.2519 34.4653 10.0306 33.6462 8.29443 32.0385C6.56793 30.4398 5.31898 28.0728 5.11983 24.9417C5.09847 24.602 5.08999 24.2378 5.09575 23.8478H5.0918V16.1816C5.0918 14.6277 5.51961 13.1774 6.30232 11.9457C7.0839 10.7159 8.21531 9.71499 9.62295 9.05812L9.62284 9.05801ZM21.2912 5.92502L10.4976 10.9616C9.45714 11.4471 8.62673 12.1775 8.05978 13.0698C7.49385 13.9603 7.1845 15.0254 7.1845 16.1813V23.8476L7.18043 23.86C7.17568 24.1702 7.18393 24.4875 7.20428 24.8101C7.36568 27.3458 8.35004 29.238 9.7084 30.4957C11.057 31.7443 12.7734 32.3803 14.4127 32.4061L14.5872 32.4059C14.9193 32.1148 15.217 31.859 15.5205 31.5981C18.9909 28.6146 23.3679 24.8517 23.5414 18.6846C23.6348 15.3627 23.6082 12.5407 23.5773 9.27946L23.5599 7.35969C23.5578 7.07538 23.4908 6.81468 23.3666 6.59073C23.2433 6.36781 23.0581 6.17403 22.8184 6.02213C22.5785 5.86988 22.3239 5.78468 22.0701 5.76846C21.8151 5.75212 21.5505 5.80397 21.2912 5.92502Z" fill="#131480"/>
</svg>
